# xmcd
#
# Track frame offsets: 
#        150
#        11461
#        18642
#        32399
#        40043
#        51066
#        59867
#        65291
#        77395
#        88479
#
# Disc length: 1362 seconds
#
# Revision: 0
# Processed by: cddbd v1.5.2PL0 Copyright (c) Steve Scherf et al.
# Submitted via: ExactAudioCopy v0.99pb4
#
DISCID=7705500a
DTITLE=George Jones - Your Tender Years
DYEAR=1996
DGENRE=Classic Country
TTITLE0=Your Tender Years
TTITLE1=Ragged, But Right
TTITLE2=Open Pit Mine
TTITLE3=Yes, I Know Why
TTITLE4=World of Forgotten People
TTITLE5=Jonesy
TTITLE6=Liberty
TTITLE7=I Can't Escape from You
TTITLE8=From Now On All My Friends are Going to Be Strangers
TTITLE9=Things Have Gone to Pieces
EXTD=
EXTT0=
EXTT1=
EXTT2=
EXTT3=
EXTT4=
EXTT5=
EXTT6=
EXTT7=
EXTT8=
EXTT9=
PLAYORDER=
